<svg viewBox="0 0 250 250" width="220" height="220" style={{ overflow: 'visible' }}>
          
          {/* Tail */}
          <g style={{ transformOrigin: '140px 170px', animation: 'tail-wag 4s ease-in-out infinite' }}>
            <path d="M 140 170 C 190 170 240 200 210 240 C 190 260 120 250 100 240" fill="none" stroke="#1A1A1A" strokeWidth="16" strokeLinecap="round" />
          </g>

          {/* Body */}
          <ellipse cx="130" cy="170" rx="42" ry="45" fill="#1A1A1A" />
          
          {/* Paws */}
          <path d="M 105 190 Q 95 220 102 225 Q 115 225 115 190 Z" fill="#1A1A1A" />
          <path d="M 130 190 Q 120 225 130 230 Q 145 230 145 190 Z" fill="#1A1A1A" />

          {/* Head Group */}
          <g style={{ transformOrigin: '125px 100px', animation: 'head-bob 5s ease-in-out infinite' }}>
            
            {/* Left Ear */}
            <path d="M 65 75 Q 35 15 95 40 Z" fill="#1A1A1A" />
            
            {/* Right Ear */}
            <path d="M 145 40 Q 210 10 185 85 Z" fill="#1A1A1A" />
            {/* Right Ear Inner (Lime green from image) */}
            <path d="M 153 47 Q 192 25 177 80 Z" fill="#C5E1A5" />

            {/* Head Base */}
            <ellipse cx="125" cy="100" rx="70" ry="60" fill="#1A1A1A" />

            {/* Left Eye */}
            <g style={{ transformOrigin: '90px 100px', animation: 'blink 4s infinite' }}>
              <ellipse cx="90" cy="100" rx="30" ry="40" fill="#FFFDE7" transform="rotate(-12 90 100)" />
              <ellipse cx="98" cy="102" rx="16" ry="26" fill="#1A1A1A" transform="rotate(-12 98 102)" />
              {/* Pupil highlight */}
              <ellipse cx="104" cy="94" rx="4" ry="6" fill="#FFFFFF" transform="rotate(-12 104 94)" />
            </g>

            {/* Right Eye */}
            <g style={{ transformOrigin: '165px 90px', animation: 'blink 4s infinite' }}>
              <ellipse cx="165" cy="90" rx="24" ry="34" fill="#FFFDE7" transform="rotate(-6 165 90)" />
              <ellipse cx="168" cy="92" rx="12" ry="22" fill="#1A1A1A" transform="rotate(-6 168 92)" />
              {/* Pupil highlight */}
              <ellipse cx="172" cy="84" rx="3" ry="5" fill="#FFFFFF" transform="rotate(-6 172 84)" />
            </g>
          </g>
        </svg>